<?xml version="1.0" encoding="UTF-8"?>
<svg width="48" height="32" viewBox="0 0 48 32" fill="none" xmlns="http://www.w3.org/2000/svg">
  <!-- Green stripe -->
  <rect width="48" height="10.67" fill="#078930"/>
  
  <!-- Yellow stripe -->
  <rect y="10.67" width="48" height="10.67" fill="#FCDD09"/>
  
  <!-- Red stripe -->
  <rect y="21.33" width="48" height="10.67" fill="#DA121A"/>
  
  <!-- Blue circle (emblem background) -->
  <circle cx="24" cy="16" r="7.5" fill="#0F47AF"/>
  
  <!-- Yellow pentagram star -->
  <path d="M24 10.5 L25.5 14.5 L29.8 14.5 L26.4 17 L27.9 21 L24 18.5 L20.1 21 L21.6 17 L18.2 14.5 L22.5 14.5 Z" fill="#FCDD09"/>
  
  <!-- Yellow rays emanating from star -->
  <g opacity="0.9">
    <!-- Top ray -->
    <path d="M24 9 L24.5 11.5 L23.5 11.5 Z" fill="#FCDD09"/>
    <!-- Top-right ray -->
    <path d="M27.5 10.5 L27 13 L26 12.5 Z" fill="#FCDD09"/>
    <!-- Right ray -->
    <path d="M29.5 13.5 L27.5 15 L27.5 14 Z" fill="#FCDD09"/>
    <!-- Bottom-right ray -->
    <path d="M29 17.5 L27 18 L27 17 Z" fill="#FCDD09"/>
    <!-- Bottom ray -->
    <path d="M26.5 20.5 L25 19.5 L24 19.5 L22.5 20.5 Z" fill="#FCDD09"/>
    <!-- Bottom-left ray -->
    <path d="M19 17.5 L21 18 L21 17 Z" fill="#FCDD09"/>
    <!-- Left ray -->
    <path d="M18.5 13.5 L20.5 15 L20.5 14 Z" fill="#FCDD09"/>
    <!-- Top-left ray -->
    <path d="M20.5 10.5 L21 13 L22 12.5 Z" fill="#FCDD09"/>
  </g>
</svg>
